<svg version="1.1" id="logo_center" xmlns="http://www.w3.org/2000/svg" xmlns:xlink="http://www.w3.org/1999/xlink" x="0px" y="0px"
         	 viewBox="0 0 195.5 228.4" style="enable-background:new 0 0 195.5 228.4;" xml:space="preserve">
         <style type="text/css">
         	.st0{fill:none;stroke:#333333;stroke-width:7;stroke-miterlimit:10;}
         </style>
         <g>
         	<path class="st0" d="M74.4,97.1L88.9,97c25.5-1,24.8-34.2-1.8-34.8C83.8,62.1,76,61.9,76,61.9l-35.9,0l0.4,60.4l48.1,0.2
         		c64.2-1.5,70.7-80.1,9.9-91.1c-0.2,0-11-0.5-11-0.5L6.6,31.1v189.1h34.6l0.1-65.2L58,155l55.1,65.1h47.5l0.3-1.9l-59.6-64.2
         		c92.9-23.2,85.5-120.9,22.5-146c-2.4-1-11.5-1.7-18.9-1.8L37.2,5.7L6.1,30.3"/>
         	<line class="st0" x1="75.5" y1="177.9" x2="41.7" y2="220.8"/>
         	<polyline class="st0" points="130.6,144.6 187,203.1 161.2,220.5 	"/>
         	<line class="st0" x1="74.4" y1="97.1" x2="40.8" y2="121"/>
         	<line class="st0" x1="74.4" y1="97.1" x2="74.4" y2="62.9"/>
         </g>
         </svg>
